<svg xmlns="http://www.w3.org/2000/svg" viewBox="0 0 1503 1504" fill="none"><rect x="287" y="258" width="928" height="844" fill="white"/><path d="M287.351 258H1215.35V1102H287.351V258Z" fill="white"/><path fill-rule="evenodd" clip-rule="evenodd" d="M1502.5 752C1502.5 1166.77 1166.27 1503 751.5 1503C336.734 1503 0.5 1166.77 0.5 752C0.5 337.234 336.734 1 751.5 1C1166.27 1 1502.5 337.234 1502.5 752ZM538.688 1050.86H392.94C362.314 1050.86 347.186 1050.86 337.962 1044.96C327.999 1038.5 321.911 1027.8 321.173 1015.99C320.619 1005.11 328.184 991.822 343.312 965.255L711.456 290.189C726.762 263.265 734.488 249.803 743.535 244.092C753.32 238.046 765.4 235.72 777.149 237.549C788.898 239.378 799.453 245.095 820.563 256.529L1158.51 459.019C1181.35 471.521 1192.77 477.772 1198.6 486.629C1204.85 496.043 1206.63 507.862 1203.48 518.851C1200.32 529.839 1190.86 539.247 1171.94 558.063L855.474 872.644L695.019 1050.86H538.688ZM906.75 1050.86H1115.59C1146.4 1050.86 1161.81 1050.86 1171.05 1044.89C1181.09 1038.36 1187.21 1027.56 1187.89 1015.65C1188.39 1004.71 1180.71 991.33 1165.36 964.55L1025.2 721.328C1009.67 694.259 1001.9 680.724 992.815 674.993C982.99 668.823 970.84 666.493 959.026 668.33C947.212 670.167 936.599 675.914 915.372 687.408L771.408 776.489L644.166 904.735L906.75 1050.86Z" fill="#E84142"/></svg>