<svg xmlns="http://www.w3.org/2000/svg" viewBox="0 0 32 32"><path fill="#f7931a" d="M15.76 19.475c.33-.237.636-.483.926-.737a9.122 9.122 0 0 1-.687-.308 8.417 8.417 0 0 1-.239.045zm.926-.737a9.037 9.037 0 0 0-.926.737c.08-.014.16-.03.24-.045.233.114.463.216.686.308z"/><path fill="#f7931a" d="M16 32C7.163 32 0 24.837 0 16S7.163 0 16 0s16 7.163 16 16-7.163 16-16 16zm7.375-20.329c-.576-2.266-2.786-3.019-5.954-2.656l-.915-3.669-2.237.557.893 3.575c-.587.146-1.188.31-1.784.475l-.899-3.601-2.237.557.915 3.669c-.481.133-.953.264-1.421.385v-.013l-3.087.769.596 2.392s1.642-.409 1.618-.377c.901-.225 1.339.312 1.548.833l1.102 4.415c.056-.014.129-.029.21-.04l-.207.051 1.543 6.187c.039.318.005.854-.664 1.046.036.019-1.618.404-1.618.404l.312 2.816 2.912-.726c.542-.135 1.077-.261 1.601-.391l.923 3.7 2.235-.557-.915-3.669c.611-.139 1.204-.286 1.783-.435l.909 3.649 2.237-.557-.921-3.693c3.689-.7 6.469-2.587 5.853-5.81-.495-2.588-2.484-3.368-4.984-3.276.854-1.955-.214-3.036-2.294-3.751zm-1.874 8.168c1.051 2.088-3.208 2.929-4.417 3.263l-1.325-5.313c1.208-.301 4.655-1.929 5.741 2.051zm-1.679-5.499c.955 1.896-2.652 2.565-3.667 2.843l-1.202-4.823c1.015-.253 3.878-1.742 4.869 1.98z"/></svg>