<svg xmlns="http://www.w3.org/2000/svg" viewBox="0 0 32 32"><g fill="none"><circle cx="16" cy="16" r="16" fill="#0088CC"/><path fill="#FFF" d="M23.448 9.617a1.446 1.446 0 00-.163-.247 1.294 1.294 0 00-1.006-.446c-.21.01-.896.105-2.053.285-1.827.286-4.495.741-7.647 1.302-6.147 1.092-6.196 1.114-6.375 1.43a1.164 1.164 0 00-.16.53c.006.325.172.521 1.47 1.77l1.557 1.49c.26.246.428.39.54.465.207.136.42.216.642.238a1.08 1.08 0 00.759-.225c.143-.12.293-.309.59-.688l3.572-4.518.54 4.09c.063.452.105.754.17.961.078.25.212.469.39.639.22.21.422.27 1.18.33.49.038.743.048.937.026a1.24 1.24 0 00.608-.233c.147-.106.264-.25.498-.54l5.71-7.072c.174-.21.292-.361.371-.495a1.25 1.25 0 00.13-.632 1.06 1.06 0 00-.16-.46zm-9.258 5.079c-.023.027-.035.02-.038-.025-.005-.068.083-.226.275-.494.478-.669 1.176-1.648 1.57-2.209.047-.068.086-.051.086.037 0 .07-.019.182-.044.25-.132.347-1.646 2.193-1.85 2.44z"/></g></svg>